<?xml version="1.0" standalone="no"?>
<!DOCTYPE svg PUBLIC "-//W3C//DTD SVG 1.1//EN" "http://www.w3.org/Graphics/SVG/1.1/DTD/svg11.dtd" >
<svg xmlns="http://www.w3.org/2000/svg">
<metadata>Generated by IcoMoon</metadata>
<defs>
<font id="esl-landing" horiz-adv-x="1024">
<font-face units-per-em="1024" ascent="960" descent="-64" />
<missing-glyph horiz-adv-x="1024" />
<glyph unicode="&#x20;" horiz-adv-x="512" d="" />
<glyph unicode="&#xe900;" glyph-name="arrow-down" d="M532.48 308.736l-327.68 328.704c-14.336 14.336-36.864 14.336-50.176 0s-14.336-36.864 0-50.176l327.68-328.704c14.336-14.336 36.864-14.336 50.176 0 13.312 13.312 13.312 36.864 0 50.176zM542.72 258.56l327.68 328.704c14.336 14.336 14.336 36.864 0 50.176s-36.864 14.336-50.176 0l-328.704-328.704c-14.336-14.336-14.336-36.864 0-50.176 14.336-14.336 36.864-14.336 51.2 0z" />
<glyph unicode="&#xe901;" glyph-name="arrow-left" d="M322.56 417.28l327.68-327.68c14.336-14.336 36.864-14.336 50.176 0 14.336 14.336 14.336 36.864 0 50.176l-327.68 327.68c-14.336 14.336-36.864 14.336-50.176 0-13.312-13.312-13.312-35.84 0-50.176zM373.76 426.496l327.68 328.704c14.336 14.336 14.336 36.864 0 50.176-14.336 14.336-36.864 14.336-50.176 0l-327.68-328.704c-14.336-14.336-14.336-36.864 0-50.176 13.312-13.312 35.84-13.312 50.176 0z" />
<glyph unicode="&#xe902;" glyph-name="arrow-right" d="M701.44 478.72l-327.68 327.68c-14.336 14.336-36.864 14.336-50.176 0s-14.336-36.864 0-50.176l327.68-327.68c14.336-14.336 36.864-14.336 50.176 0 13.312 13.312 13.312 35.84 0 50.176zM650.24 468.48l-327.68-327.68c-14.336-14.336-14.336-36.864 0-50.176 14.336-14.336 36.864-14.336 50.176 0l327.68 327.68c14.336 14.336 14.336 36.864 0 50.176-13.312 13.312-35.84 13.312-50.176 0z" />
<glyph unicode="&#xe903;" glyph-name="arrow-up" d="M481.28 637.44l-327.68-328.704c-14.336-14.336-14.336-36.864 0-50.176s36.864-14.336 50.176 0l327.68 328.704c14.336 14.336 14.336 36.864 0 50.176s-35.84 13.312-50.176 0zM491.52 586.24l327.68-328.704c14.336-14.336 36.864-14.336 50.176 0s14.336 36.864 0 50.176l-326.656 329.728c-14.336 14.336-36.864 14.336-50.176 0s-14.336-36.864-1.024-51.2z" />
<glyph unicode="&#xe904;" glyph-name="challenge" d="M332.8 148.992c-4.096 0-8.192 1.024-11.264 3.072-6.144 4.096-9.216 11.264-8.192 18.432l30.72 192.512-139.264 134.144c-5.12 5.12-7.168 12.288-5.12 19.456s8.192 13.312 15.36 13.312l192.512 30.72 84.992 176.128c3.072 6.144 10.24 11.264 17.408 11.264s14.336-4.096 17.408-10.24l88.064-174.080 193.536-26.624c7.168-1.024 13.312-6.144 15.36-13.312s1.024-14.336-5.12-19.456l-138.24-138.24 34.816-192.512c1.024-7.168-2.048-14.336-7.168-18.432s-13.312-5.12-20.48-2.048l-174.080 89.088-172.032-92.16c-2.048-1.024-6.144-1.024-9.216-1.024zM259.072 498.176l119.808-114.688c4.096-4.096 7.168-10.24 6.144-17.408l-26.624-163.84 146.432 78.848c5.12 3.072 12.288 3.072 17.408 0l148.48-75.776-29.696 163.84c-1.024 6.144 1.024 12.288 5.12 17.408l117.76 117.76-164.864 22.528c-6.144 1.024-11.264 5.12-14.336 10.24l-74.752 148.48-71.68-149.504c-3.072-6.144-8.192-9.216-14.336-10.24l-164.864-27.648z" />
<glyph unicode="&#xe905;" d="M431.104 395.776h48.128l-3.072-88.064h-201.728v40.96h25.6v197.632h-28.672v40.96h202.752l3.072-81.92h-48.128l-2.048 40.96h-68.608v-73.728h70.656v-43.008h-70.656v-80.896h69.632z" />
<glyph unicode="&#xe906;" d="M947.2 397.824h48.128l-4.096-90.112h-199.68v40.96h24.576v197.632h-24.576v40.96h108.544v-40.96h-25.6v-197.632h68.608z" />
<glyph unicode="&#xe907;" d="M677.888 544.256c-10.24 4.096-23.552 7.168-37.888 7.168-38.912 0-51.2-20.48-51.2-35.84 0-20.48 14.336-26.624 32.768-30.72l33.792-8.192c40.96-10.24 87.040-23.552 87.040-81.92 0-53.248-35.84-92.16-115.712-92.16-30.72 0-62.464 3.072-100.352 15.36v73.728h58.368v-35.84c14.336-6.144 30.72-7.168 47.104-7.168 34.816 0 49.152 16.384 49.152 37.888 0 14.336-8.192 24.576-45.056 34.816l-30.72 8.192c-57.344 14.336-76.8 36.864-76.8 79.872 0 44.032 30.72 83.968 110.592 83.968 33.792 0 67.584-5.12 92.16-14.336v-66.56h-52.224l-1.024 31.744z" />
<glyph unicode="&#xe908;" d="M28.672 546.304h161.792v-32.768h-161.792v32.768z" />
<glyph unicode="&#xe909;" d="M28.672 463.36h161.792v-32.768h-161.792v32.768z" />
<glyph unicode="&#xe90a;" d="M28.672 380.416h161.792v-32.768h-161.792v32.768z" />
<glyph unicode="&#xe90b;" d="M431.104 395.776h48.128l-3.072-88.064h-201.728v40.96h25.6v197.632h-28.672v40.96h202.752l3.072-81.92h-48.128l-2.048 40.96h-68.608v-73.728h70.656v-43.008h-70.656v-80.896h69.632z" />
<glyph unicode="&#xe90c;" d="M947.2 397.824h48.128l-4.096-90.112h-199.68v40.96h24.576v197.632h-24.576v40.96h108.544v-40.96h-25.6v-197.632h68.608z" />
<glyph unicode="&#xe90d;" d="M677.888 544.256c-10.24 4.096-23.552 7.168-37.888 7.168-38.912 0-51.2-20.48-51.2-35.84 0-20.48 14.336-26.624 32.768-30.72l33.792-8.192c40.96-10.24 87.040-23.552 87.040-81.92 0-53.248-35.84-92.16-115.712-92.16-30.72 0-62.464 3.072-100.352 15.36v73.728h58.368v-35.84c14.336-6.144 30.72-7.168 47.104-7.168 34.816 0 49.152 16.384 49.152 37.888 0 14.336-8.192 24.576-45.056 34.816l-30.72 8.192c-57.344 14.336-76.8 36.864-76.8 79.872 0 44.032 30.72 83.968 110.592 83.968 33.792 0 67.584-5.12 92.16-14.336v-66.56h-52.224l-1.024 31.744z" />
<glyph unicode="&#xe90e;" d="M28.672 546.304h161.792v-32.768h-161.792v32.768z" />
<glyph unicode="&#xe90f;" d="M28.672 463.36h161.792v-32.768h-161.792v32.768z" />
<glyph unicode="&#xe910;" d="M28.672 380.416h161.792v-32.768h-161.792v32.768z" />
<glyph unicode="&#xe911;" glyph-name="guess" d="M570.368 452.096c-37.888-30.72-37.888-56.32-37.888-100.352 0-13.312-7.168-27.648-37.888-27.648-25.6 0-34.816 10.24-34.816 43.008 0 70.656 24.576 101.376 46.080 120.832 26.624 25.6 74.752 52.224 74.752 103.424 0 43.008-31.744 65.536-78.848 65.536-74.752 0-64.512-52.224-100.352-52.224-17.408 0-37.888 11.264-37.888 36.864 0 36.864 48.128 90.112 140.288 90.112 97.28 0 157.696-55.296 157.696-129.024 0-79.872-67.584-129.024-91.136-150.528zM546.816 216.576c0-27.648-22.528-52.224-52.224-52.224-28.672 0-51.2 24.576-51.2 52.224 0 28.672 22.528 52.224 51.2 52.224s52.224-23.552 52.224-52.224z" />
<glyph unicode="&#xe912;" glyph-name="listen" d="M452.608 645.632l-115.712-86.016c-19.456-14.336-35.84-21.504-35.84-18.432 0 4.096-20.48 8.192-45.056 8.192h-35.84c-24.576 0-38.912-24.576-38.912-49.152v-99.328c0-24.576 14.336-47.104 38.912-47.104h35.84c24.576 0 45.056 2.048 45.056 3.072s16.384-9.216 35.84-23.552l115.712-86.016c19.456-14.336 35.84-6.144 35.84 18.432v362.496c0 24.576-15.36 32.768-35.84 17.408zM593.92 569.856c-9.216-6.144-11.264-17.408-6.144-26.624 18.432-28.672 27.648-62.464 27.648-96.256s-9.216-66.56-27.648-95.232c-5.12-9.216-3.072-20.48 6.144-26.624 3.072-2.048 7.168-3.072 10.24-3.072 6.144 0 12.288 3.072 16.384 9.216 21.504 34.816 32.768 74.752 32.768 115.712s-12.288 81.92-33.792 116.736c-5.12 9.216-17.408 11.264-25.6 6.144zM689.152 634.368c-6.144 8.192-18.432 10.24-26.624 4.096s-10.24-18.432-4.096-26.624c35.84-48.128 54.272-105.472 54.272-164.864s-18.432-115.712-53.248-163.84c-6.144-8.192-4.096-20.48 4.096-26.624 3.072-2.048 7.168-4.096 11.264-4.096 6.144 0 11.264 3.072 15.36 8.192 39.936 54.272 61.44 118.784 61.44 186.368-1.024 67.584-22.528 133.12-62.464 187.392zM752.64 699.904c-6.144 8.192-18.432 9.216-26.624 3.072s-9.216-18.432-3.072-26.624c52.224-65.536 79.872-145.408 79.872-229.376s-27.648-161.792-78.848-227.328c-6.144-8.192-5.12-20.48 3.072-26.624 3.072-3.072 8.192-4.096 12.288-4.096 6.144 0 11.264 2.048 15.36 7.168 57.344 72.704 87.040 159.744 87.040 251.904 0 91.136-30.72 179.2-89.088 251.904z" />
<glyph unicode="&#xe913;" glyph-name="repeat" d="M512 174.592c-151.552 0-274.432 122.88-274.432 274.432 0 10.24 8.192 19.456 19.456 19.456s19.456-8.192 19.456-19.456c0-130.048 105.472-235.52 235.52-235.52 10.24 0 19.456-8.192 19.456-19.456s-8.192-19.456-19.456-19.456zM766.976 429.568c-10.24 0-19.456 8.192-19.456 19.456 0 130.048-105.472 235.52-235.52 235.52-10.24 0-19.456 8.192-19.456 19.456s8.192 19.456 19.456 19.456c151.552 0 274.432-122.88 274.432-274.432 0-10.24-8.192-19.456-19.456-19.456zM512 684.544c-5.12 0-10.24 2.048-13.312 5.12-7.168 7.168-7.168 19.456 0 27.648l88.064 88.064c7.168 7.168 19.456 7.168 27.648 0 7.168-7.168 7.168-19.456 0-27.648l-88.064-88.064c-4.096-3.072-9.216-5.12-14.336-5.12zM600.064 585.216c-5.12 0-10.24 2.048-13.312 5.12l-88.064 88.064c-7.168 7.168-7.168 19.456 0 27.648 7.168 7.168 19.456 7.168 27.648 0l88.064-88.064c7.168-7.168 7.168-19.456 0-27.648-4.096-4.096-9.216-5.12-14.336-5.12zM530.432 185.856c-5.12 0-10.24 2.048-13.312 5.12l-88.064 88.064c-7.168 7.168-7.168 19.456 0 27.648 7.168 7.168 19.456 7.168 27.648 0l88.064-88.064c7.168-7.168 7.168-19.456 0-27.648-4.096-4.096-9.216-5.12-14.336-5.12zM443.392 85.504c-5.12 0-10.24 2.048-13.312 5.12-7.168 7.168-7.168 19.456 0 27.648l88.064 88.064c7.168 7.168 19.456 7.168 27.648 0 7.168-7.168 7.168-19.456 0-27.648l-88.064-88.064c-5.12-3.072-9.216-5.12-14.336-5.12z" />
<glyph unicode="&#xe914;" glyph-name="share" d="M638.976 337.408c-18.432 0-35.84-7.168-48.128-19.456l-151.552 97.28c6.144 10.24 9.216 21.504 9.216 33.792s-3.072 23.552-8.192 32.768l152.576 96.256c12.288-11.264 28.672-18.432 46.080-18.432 36.864 0 67.584 30.72 67.584 67.584s-30.72 67.584-67.584 67.584c-36.864 0-67.584-30.72-67.584-67.584 0-9.216 2.048-17.408 5.12-25.6l-154.624-99.328c-11.264 8.192-24.576 12.288-38.912 12.288-36.864 0-67.584-30.72-67.584-67.584s30.72-67.584 67.584-67.584c14.336 0 27.648 4.096 38.912 12.288l155.648-99.328c-3.072-7.168-4.096-15.36-4.096-23.552 0-36.864 30.72-67.584 67.584-67.584s67.584 30.72 67.584 67.584c-2.048 37.888-31.744 68.608-69.632 68.608z" />
<glyph unicode="&#xe915;" glyph-name="trophy" d="M271.36 833.024c161.792 0 324.608 0 486.4 0 0-20.48 0-40.96 0-62.464 39.936 0 77.824 0 114.688 0 1.024-4.096 2.048-7.168 2.048-9.216-2.048-96.256-26.624-185.344-87.040-262.144-34.816-44.032-77.824-75.776-134.144-88.064-28.672-6.144-39.936-20.48-39.936-50.176 0-9.216 0-18.432 0-30.72-17.408 0-32.768 0-48.128 0 0-41.984 0-80.896 0-122.88 16.384 0 31.744 0 48.128 0 0-16.384 0-31.744 0-48.128 16.384 0 31.744 0 46.080 0 0-33.792 0-64.512 0-96.256-97.28 0-193.536 0-288.768 0 0 32.768 0 63.488 0 97.28 16.384 0 30.72 0 47.104 0 0 17.408 0 31.744 0 49.152 17.408 0 31.744 0 47.104 0 0 41.984 0 80.896 0 121.856-9.216 0-16.384 0-24.576 0-7.168 0-15.36 0-23.552 0 0 13.312 0 23.552 0 33.792 0 24.576-14.336 37.888-37.888 46.080-29.696 10.24-61.44 21.504-87.040 39.936-75.776 55.296-112.64 135.168-130.048 224.256-6.144 30.72-7.168 62.464-11.264 97.28 44.032 0 82.944 0 122.88 0 0 20.48-1.024 40.96-2.048 60.416zM346.112 475.648c-14.336 39.936-30.72 79.872-41.984 119.808-11.264 40.96-18.432 82.944-27.648 124.928-23.552 0-47.104 0-70.656 0 3.072-100.352 73.728-222.208 140.288-244.736zM685.056 475.648c90.112 56.32 123.904 143.36 139.264 243.712-24.576 0-47.104 0-71.68 0-11.264-83.968-30.72-165.888-67.584-243.712z" />
<glyph unicode="&#xe916;" glyph-name="register" d="M553.984 75.264v24.576h-253.952c-37.888 0-71.68 15.36-96.256 39.936s-39.936 58.368-39.936 96.256v423.936c0 37.888 15.36 71.68 39.936 96.256s58.368 39.936 96.256 39.936h253.952c37.888 0 71.68-15.36 96.256-39.936s39.936-58.368 39.936-96.256v-424.96c0-37.888-15.36-71.68-39.936-96.256s-58.368-39.936-96.256-39.936v-47.104c101.376 0 183.296 81.92 183.296 183.296v424.96c0 101.376-81.92 183.296-183.296 183.296h-253.952c-101.376 0-183.296-81.92-183.296-183.296v-424.96c0-101.376 81.92-183.296 183.296-183.296h253.952v23.552zM450.56 393.728l113.664-114.688c10.24-10.24 26.624-10.24 35.84 0 10.24 10.24 10.24 26.624 0 35.84l-112.64 114.688c-10.24 10.24-26.624 10.24-35.84 0-10.24-9.216-10.24-25.6-1.024-35.84zM609.28 276.992l290.816 292.864c10.24 10.24 10.24 26.624 0 35.84-10.24 10.24-26.624 10.24-35.84 0l-291.84-292.864c-10.24-10.24-10.24-26.624 0-35.84s26.624-10.24 36.864 0z" />
</font>
</defs>
</svg>
